<?xml version="1.0" encoding="UTF-8"?>
<!DOCTYPE svg PUBLIC "-//W3C//DTD SVG 1.1//EN" "http://www.w3.org/Graphics/SVG/1.1/DTD/svg11.dtd">
<!-- Creator: CorelDRAW 2019 (64-Bit) -->
<svg xmlns="http://www.w3.org/2000/svg" xml:space="preserve" width="3.06032in" height="1.70718in" version="1.1" style="shape-rendering:geometricPrecision; text-rendering:geometricPrecision; image-rendering:optimizeQuality; fill-rule:evenodd; clip-rule:evenodd"
viewBox="0 0 88.638 49.446"
 xmlns:xlink="http://www.w3.org/1999/xlink">
 <defs>
  <style type="text/css">
   <![CDATA[
    .fil0 {fill:white}
   ]]>
  </style>
 </defs>
 <g id="Layer_x0020_1">
  <metadata id="CorelCorpID_0Corel-Layer"/>
  <path class="fil0" d="M57.164 26.284l-25.66 0 0 -25.677 25.66 0 0 25.677zm22.141 10.571l3.952 5.381 0.369 0 3.94 -5.381 0 6.618 1.071 0 0 -8.024 -0.923 0 -4.023 5.5 -4.077 -5.5 -1 0 0 8.024 0.667 0 0.024 -6.618zm-10.398 -1.405l0 8.024 6.72 0 0 -0.583 -5.595 0 0 -3.226 3.738 0 0.167 -0.595 -3.916 0 0 -3.036 5.196 -0.006 0.209 -0.578 -6.518 0zm-9.684 0l0 8.024 6.69 0 0 -0.583 -5.595 0 0 -3.226 3.738 0 0.166 -0.595 -3.916 0 0 -3.036 5.196 -0.006 0.209 -0.578 -6.488 0zm-10.594 0l0 8.024 1.089 0 0 -3.083 2.678 0 2.522 3.083 1.29 0 -2.692 -3.351c0,0 2.022,-0.458 2.022,-2.131 0,-1.672 -1.801,-2.542 -3.12,-2.542 -1.32,0 -3.79,0 -3.79,0zm1.083 4.333l0 -3.726c0,0 2.363,0 2.595,0 0.232,0 2.089,0.28 2.089,1.863 0,1.583 -1.978,1.863 -1.978,1.863l-2.707 0 0 0zm-9.19 -3.726c0.381,0 3.69,0.417 3.69,3.417 0,3 -2.768,3.417 -3.369,3.417 -0.321,0 -2.167,0 -2.167,0l0 -6.833c0,0 1.464,0 1.845,0l0 0zm-2.94 -0.607l0 8.024 3.464 0c0,0 4.369,-0.274 4.309,-4.012 -0.059,-3.738 -4.702,-4.012 -4.702,-4.012l-3.071 0 0 -0zm-10.702 1.262l5.785 6.761 1.072 0 0 -8.024 -0.691 0 0 6.786 -5.833 -6.786 -1 0 0 8.024 0.667 0 0 -6.761zm-8.695 -1.476c-2.846,0 -4.851,2 -4.851,4.117 0,2.358 1.981,4.406 4.827,4.406 2.496,-0.03 4.829,-1.726 4.829,-4.439 -0.011,-2.162 -2.243,-4.084 -4.805,-4.084l-0 0zm-3.697 4.226c0,-1.785 1.572,-3.714 3.682,-3.714 1.872,0 3.681,1.625 3.681,3.738 0,2.113 -1.832,3.696 -3.669,3.696 -2.305,0 -3.694,-2.012 -3.694,-3.721l0 0zm-4.398 4.011l0 -8.024 -0.976 0 -4.018 5.512 -4.095 -5.512 -1 0 0 8.024 0.667 0 0.027 -6.681 4 5.443 0.318 0 3.94 -5.381 0 6.618 1.137 0zm23.659 3.712c0,0.15 0.045,0.276 0.139,0.378 0.094,0.102 0.21,0.187 0.349,0.256 0.139,0.069 0.291,0.13 0.452,0.183 0.161,0.053 0.313,0.106 0.452,0.162 0.138,0.057 0.255,0.118 0.349,0.187 0.094,0.069 0.138,0.155 0.138,0.26 0,0.094 -0.018,0.179 -0.054,0.256 -0.036,0.077 -0.09,0.147 -0.161,0.203 -0.071,0.057 -0.156,0.102 -0.255,0.134 -0.098,0.032 -0.21,0.049 -0.331,0.049 -0.192,0 -0.358,-0.029 -0.497,-0.081 -0.139,-0.053 -0.26,-0.118 -0.362,-0.195 -0.112,-0.077 -0.206,-0.167 -0.282,-0.269l-0.134 0.102c0.085,0.118 0.192,0.224 0.318,0.317 0.108,0.081 0.242,0.154 0.398,0.219 0.157,0.065 0.345,0.097 0.559,0.097 0.184,0 0.349,-0.025 0.497,-0.073 0.148,-0.049 0.273,-0.11 0.376,-0.187 0.103,-0.077 0.179,-0.167 0.233,-0.268 0.054,-0.102 0.081,-0.203 0.081,-0.309 0,-0.15 -0.045,-0.276 -0.139,-0.378 -0.094,-0.102 -0.21,-0.187 -0.349,-0.256 -0.138,-0.069 -0.291,-0.13 -0.452,-0.183 -0.161,-0.053 -0.313,-0.106 -0.452,-0.162 -0.139,-0.057 -0.255,-0.118 -0.349,-0.187 -0.094,-0.069 -0.139,-0.154 -0.139,-0.26 0,-0.077 0.018,-0.15 0.054,-0.219 0.036,-0.069 0.085,-0.13 0.148,-0.183 0.062,-0.053 0.138,-0.094 0.228,-0.126 0.09,-0.032 0.188,-0.049 0.295,-0.049 0.148,0 0.278,0.025 0.394,0.069 0.116,0.045 0.219,0.097 0.313,0.159 0.103,0.065 0.192,0.138 0.273,0.224l0.134 -0.102c-0.085,-0.097 -0.184,-0.187 -0.295,-0.264 -0.094,-0.069 -0.21,-0.13 -0.349,-0.183 -0.139,-0.053 -0.295,-0.081 -0.47,-0.081 -0.174,0 -0.331,0.02 -0.465,0.061 -0.134,0.04 -0.25,0.097 -0.345,0.167 -0.094,0.069 -0.166,0.15 -0.215,0.24 -0.049,0.09 -0.076,0.183 -0.076,0.281l-0.009 0.012 0 0.001zm6.15 0.956l-0.76 0 0 -1.423 0.76 0c0.13,0 0.246,0.02 0.353,0.057 0.108,0.037 0.197,0.09 0.273,0.155 0.076,0.065 0.134,0.142 0.179,0.228 0.045,0.085 0.067,0.179 0.067,0.276 0,0.097 -0.023,0.191 -0.067,0.276 -0.045,0.085 -0.103,0.162 -0.179,0.228 -0.076,0.065 -0.17,0.118 -0.277,0.154 -0.107,0.037 -0.224,0.057 -0.353,0.057l0.004 -0.008 0 0.001zm-0.765 0.211l0.76 0c0.197,0 0.371,-0.024 0.528,-0.073 0.157,-0.049 0.286,-0.114 0.394,-0.195 0.107,-0.081 0.188,-0.179 0.246,-0.289 0.058,-0.11 0.085,-0.228 0.085,-0.35 0,-0.122 -0.027,-0.24 -0.085,-0.35 -0.058,-0.109 -0.139,-0.207 -0.246,-0.288 -0.108,-0.081 -0.237,-0.147 -0.394,-0.195 -0.157,-0.049 -0.331,-0.073 -0.528,-0.073l-1.118 0 0 2.847 0.358 0 0 -1.033 -0 0zm6.423 0.277l0.336 0.732 0.403 0 -1.319 -2.847 -0.291 0 -1.319 2.847 0.269 0 0.335 -0.732 1.588 0 -0 0zm-1.498 -0.203l0.693 -1.504 0.023 0 0.693 1.504 -1.409 0 -0 0zm5.255 0.935l0 -2.847 -0.358 0 0 2.847 0.358 0zm3.22 0l0 -2.399 0.022 0 1.923 2.399 0.335 0 0 -2.847 -0.224 0 0 2.399 -0.022 0 -1.923 -2.399 -0.335 0 0 2.847 0.224 0 -0 0zm-8.19 -37.246l-7.542 -7.008 -0.799 0 -0.004 16.606 1.488 0 0 -1.452 13.69 -12.547 0.024 4.047 -10.809 9.952 0.988 0 5.952 -5.5 0.024 5.5 0.619 0 0 -6.083 3.214 -2.94 0.012 9.023 1.464 0 0 -16.606 -0.712 0 -7.608 7.008 -0.001 0zm-6.857 -4.414l5.821 5.321 -2.309 2.131 -3.512 -3.202 0 -4.25 0 0zm0 5.178l3 2.773 -3 2.774 0 -5.547zm-6.583 -12.88l0 26.903 26.903 0 0 -26.903 -26.903 0z"/>
 </g>
</svg>
