<?xml version="1.0" encoding="UTF-8"?>
<!DOCTYPE svg PUBLIC "-//W3C//DTD SVG 1.1//EN" "http://www.w3.org/Graphics/SVG/1.1/DTD/svg11.dtd">
<!-- Creator: CorelDRAW 2019 (64-Bit) -->
<svg xmlns="http://www.w3.org/2000/svg" xml:space="preserve" width="2.38493in" height="2.38494in" version="1.1" style="shape-rendering:geometricPrecision; text-rendering:geometricPrecision; image-rendering:optimizeQuality; fill-rule:evenodd; clip-rule:evenodd"
viewBox="0 0 57.455 57.456"
 xmlns:xlink="http://www.w3.org/1999/xlink">
 <defs>
  <style type="text/css">
   <![CDATA[
    .fil1 {fill:white}
    .fil0 {fill:#333333}
   ]]>
  </style>
 </defs>
 <rect class="fil0" x="-218.903" y="-75.335" width="199.178" height="281.694"/>
 <g id="Layer_x0020_1">
  <metadata id="CorelCorpID_0Corel-Layer"/>
  <g id="_2075648588512">
   <path class="fil1" d="M56.083 56.134l-54.799 0 0 -54.837 54.799 0 0 54.837zm-56.083 -56.134l0 57.456 57.455 0 0 -57.456 -57.455 0z"/>
   <path class="fil1" d="M28.702 25.874l-16.107 -14.967 -1.705 0 -0.009 35.464 3.178 0 0 -3.101 29.236 -26.796 0.051 8.644 -23.084 21.254 2.11 0 12.712 -11.745 0.051 11.745 1.322 0 0 -12.991 6.864 -6.28 0.025 19.271 3.127 0 0 -35.464 -1.522 0 -16.249 14.967zm-14.644 -9.425l12.432 11.364 -4.932 4.551 -7.5 -6.839 0 -9.076zm0 11.059l6.407 5.923 -6.407 5.924 0 -11.847z"/>
  </g>
 </g>
</svg>
