<?xml version="1.0" encoding="UTF-8"?>
<!DOCTYPE svg PUBLIC "-//W3C//DTD SVG 1.1//EN" "http://www.w3.org/Graphics/SVG/1.1/DTD/svg11.dtd">
<!-- Creator: CorelDRAW 2019 (64-Bit) -->
<svg xmlns="http://www.w3.org/2000/svg" xml:space="preserve" width="3.06032in" height="1.70718in" version="1.1" style="shape-rendering:geometricPrecision; text-rendering:geometricPrecision; image-rendering:optimizeQuality; fill-rule:evenodd; clip-rule:evenodd"
viewBox="0 0 47.97 26.76"
 xmlns:xlink="http://www.w3.org/1999/xlink">
 <defs>
  <style type="text/css">
   <![CDATA[
    .fil0 {fill:black}
   ]]>
  </style>
 </defs>
 <g id="Layer_x0020_1">
  <metadata id="CorelCorpID_0Corel-Layer"/>
  <path class="fil0" d="M30.937 14.225l-13.887 0 0 -13.896 13.887 0 0 13.896zm11.983 5.721l2.139 2.912 0.2 0 2.132 -2.912 0 3.582 0.58 0 0 -4.342 -0.499 0 -2.177 2.976 -2.207 -2.976 -0.541 0 0 4.342 0.361 0 0.013 -3.582zm-5.627 -0.76l0 4.342 3.637 0 0 -0.316 -3.028 0 0 -1.746 2.023 0 0.09 -0.322 -2.119 0 0 -1.643 2.812 -0.003 0.113 -0.313 -3.527 0zm-5.241 0l0 4.342 3.621 0 0 -0.316 -3.028 0 0 -1.746 2.023 0 0.09 -0.322 -2.119 0 0 -1.643 2.812 -0.003 0.113 -0.313 -3.511 0zm-5.734 0l0 4.342 0.59 0 0 -1.668 1.449 0 1.365 1.668 0.698 0 -1.457 -1.814c0,0 1.095,-0.248 1.095,-1.153 0,-0.905 -0.974,-1.375 -1.689,-1.375 -0.714,0 -2.051,0 -2.051,0zm0.586 2.345l0 -2.016c0,0 1.279,0 1.404,0 0.126,0 1.131,0.151 1.131,1.008 0,0.857 -1.07,1.008 -1.07,1.008l-1.465 0 0 0zm-4.974 -2.016c0.206,0 1.997,0.225 1.997,1.849 0,1.624 -1.498,1.849 -1.823,1.849 -0.174,0 -1.173,0 -1.173,0l0 -3.698c0,0 0.792,0 0.999,0l0 0zm-1.591 -0.329l0 4.342 1.875 0c0,0 2.364,-0.148 2.332,-2.171 -0.032,-2.023 -2.545,-2.171 -2.545,-2.171l-1.662 0 0 -0zm-5.792 0.683l3.131 3.659 0.58 0 0 -4.342 -0.374 0 0 3.672 -3.157 -3.672 -0.541 0 0 4.342 0.361 0 0 -3.659zm-4.706 -0.799c-1.54,0 -2.625,1.082 -2.625,2.228 0,1.276 1.072,2.385 2.612,2.385 1.351,-0.016 2.613,-0.934 2.613,-2.403 -0.006,-1.17 -1.214,-2.21 -2.6,-2.21l-0 0zm-2.001 2.287c0,-0.966 0.851,-2.01 1.993,-2.01 1.013,0 1.992,0.879 1.992,2.023 0,1.144 -0.992,2 -1.986,2 -1.247,0 -1.999,-1.089 -1.999,-2.014l0 0zm-2.38 2.171l0 -4.342 -0.528 0 -2.174 2.983 -2.216 -2.983 -0.541 0 0 4.342 0.361 0 0.015 -3.616 2.165 2.946 0.172 0 2.133 -2.912 0 3.582 0.615 0zm12.804 2.009c0,0.081 0.024,0.15 0.075,0.205 0.051,0.055 0.114,0.101 0.189,0.139 0.075,0.037 0.157,0.07 0.244,0.099 0.087,0.028 0.169,0.057 0.244,0.088 0.075,0.031 0.138,0.064 0.189,0.101 0.051,0.038 0.075,0.084 0.075,0.141 0,0.051 -0.01,0.097 -0.029,0.139 -0.019,0.042 -0.049,0.079 -0.087,0.11 -0.039,0.031 -0.085,0.055 -0.138,0.073 -0.053,0.018 -0.114,0.026 -0.179,0.026 -0.104,0 -0.194,-0.015 -0.269,-0.044 -0.075,-0.028 -0.14,-0.064 -0.196,-0.106 -0.061,-0.042 -0.111,-0.09 -0.152,-0.145l-0.073 0.055c0.046,0.064 0.104,0.121 0.172,0.172 0.058,0.044 0.131,0.084 0.215,0.119 0.085,0.035 0.186,0.053 0.302,0.053 0.099,0 0.189,-0.013 0.269,-0.04 0.08,-0.026 0.148,-0.059 0.203,-0.101 0.056,-0.042 0.097,-0.09 0.126,-0.145 0.029,-0.055 0.044,-0.11 0.044,-0.167 0,-0.081 -0.024,-0.15 -0.075,-0.205 -0.051,-0.055 -0.114,-0.101 -0.189,-0.139 -0.075,-0.037 -0.157,-0.07 -0.244,-0.099 -0.087,-0.029 -0.169,-0.057 -0.244,-0.088 -0.075,-0.031 -0.138,-0.064 -0.189,-0.101 -0.051,-0.037 -0.075,-0.084 -0.075,-0.141 0,-0.042 0.01,-0.081 0.029,-0.119 0.019,-0.038 0.046,-0.07 0.08,-0.099 0.034,-0.028 0.075,-0.051 0.123,-0.068 0.049,-0.018 0.102,-0.026 0.16,-0.026 0.08,0 0.15,0.013 0.213,0.037 0.063,0.024 0.119,0.053 0.169,0.086 0.056,0.035 0.104,0.075 0.148,0.121l0.073 -0.055c-0.046,-0.053 -0.099,-0.101 -0.16,-0.143 -0.051,-0.038 -0.114,-0.07 -0.189,-0.099 -0.075,-0.029 -0.16,-0.044 -0.254,-0.044 -0.094,0 -0.179,0.011 -0.252,0.033 -0.073,0.022 -0.135,0.053 -0.186,0.09 -0.051,0.038 -0.09,0.081 -0.116,0.13 -0.027,0.049 -0.041,0.099 -0.041,0.152l-0.005 0.007 0 0.001zm3.328 0.517l-0.412 0 0 -0.77 0.412 0c0.07,0 0.133,0.011 0.191,0.031 0.058,0.02 0.107,0.049 0.148,0.084 0.041,0.035 0.073,0.077 0.097,0.123 0.024,0.046 0.036,0.097 0.036,0.15 0,0.053 -0.012,0.103 -0.036,0.15 -0.024,0.046 -0.056,0.088 -0.097,0.123 -0.041,0.035 -0.092,0.064 -0.15,0.084 -0.058,0.02 -0.121,0.031 -0.191,0.031l0.002 -0.004 0 0zm-0.414 0.114l0.412 0c0.107,0 0.201,-0.013 0.286,-0.04 0.085,-0.027 0.155,-0.062 0.213,-0.106 0.058,-0.044 0.102,-0.097 0.133,-0.156 0.031,-0.059 0.046,-0.123 0.046,-0.189 0,-0.066 -0.015,-0.13 -0.046,-0.189 -0.031,-0.059 -0.075,-0.112 -0.133,-0.156 -0.058,-0.044 -0.128,-0.079 -0.213,-0.106 -0.085,-0.026 -0.179,-0.04 -0.286,-0.04l-0.605 0 0 1.541 0.194 0 0 -0.559 -0 0zm3.476 0.15l0.182 0.396 0.218 0 -0.714 -1.541 -0.157 0 -0.714 1.541 0.145 0 0.181 -0.396 0.859 0 -0 0zm-0.811 -0.11l0.375 -0.814 0.012 0 0.375 0.814 -0.763 0 -0 0zm2.844 0.506l0 -1.541 -0.194 0 0 1.541 0.194 0zm1.743 0l0 -1.298 0.012 0 1.041 1.298 0.181 0 0 -1.541 -0.121 0 0 1.298 -0.012 0 -1.041 -1.298 -0.181 0 0 1.541 0.121 0 -0 0zm-4.432 -20.157l-4.082 -3.793 -0.432 0 -0.002 8.987 0.805 0 0 -0.786 7.409 -6.79 0.013 2.19 -5.85 5.386 0.535 0 3.221 -2.976 0.013 2.976 0.335 0 0 -3.292 1.739 -1.591 0.007 4.883 0.792 0 0 -8.987 -0.386 0 -4.118 3.793 -0 0zm-3.711 -2.389l3.15 2.88 -1.25 1.153 -1.9 -1.733 0 -2.3 0 0zm0 2.802l1.624 1.501 -1.624 1.501 0 -3.002zm-3.563 -6.971l0 14.56 14.56 0 0 -14.56 -14.56 0z"/>
 </g>
</svg>
